HIERARCHY
ROOT Hips
{
	OFFSET -0.001795 -0.223333 0.028219
	CHANNELS 6 Xposition Yposition Zposition Zrotation Yrotation Xrotation 
	JOINT LeftUpLeg
	{
		OFFSET 0.069520 -0.091406 -0.006815
		CHANNELS 3 Zrotation Yrotation Xrotation
		JOINT LeftLeg
		{
			OFFSET 0.034277 -0.375199 -0.004496
			CHANNELS 3 Zrotation Yrotation Xrotation
			JOINT LeftFoot
			{
				OFFSET -0.013596 -0.397961 -0.043693
				CHANNELS 3 Zrotation Yrotation Xrotation
				JOINT LeftToe
				{
					OFFSET 0.026358 -0.055791 0.119288
					CHANNELS 3 Zrotation Yrotation Xrotation
					End Site
					{
						OFFSET 0.000000 0.000000 0.000000
					}
				}
			}
		}
	}
	JOINT RightUpLeg
	{
		OFFSET -0.067670 -0.090522 -0.004320
		CHANNELS 3 Zrotation Yrotation Xrotation
		JOINT RightLeg
		{
			OFFSET -0.038290 -0.382569 -0.008850
			CHANNELS 3 Zrotation Yrotation Xrotation
			JOINT RightFoot
			{
				OFFSET 0.015774 -0.398415 -0.042312
				CHANNELS 3 Zrotation Yrotation Xrotation
				JOINT RightToe
				{
					OFFSET -0.025372 -0.048144 0.123348
					CHANNELS 3 Zrotation Yrotation Xrotation
					End Site
					{
						OFFSET 0.000000 0.000000 0.000000
					}
				}
			}
		}
	}
	JOINT Spine
	{
		OFFSET -0.002533 0.108963 -0.026696
		CHANNELS 3 Zrotation Yrotation Xrotation
		JOINT Spine1
		{
			OFFSET 0.005487 0.135180 0.001092
			CHANNELS 3 Zrotation Yrotation Xrotation
			JOINT Spine2
			{
				OFFSET 0.001457 0.052922 0.025425
				CHANNELS 3 Zrotation Yrotation Xrotation
				JOINT Neck
				{
					OFFSET -0.002778 0.213870 -0.042857
					CHANNELS 3 Zrotation Yrotation Xrotation
					JOINT Head
					{
						OFFSET 0.005152 0.064970 0.051349
						CHANNELS 3 Zrotation Yrotation Xrotation
						End Site
						{
							OFFSET 0.000000 0.000000 0.000000
						}
					}
				}
				JOINT LeftShoulder
				{
					OFFSET 0.078845 0.121749 -0.034090
					CHANNELS 3 Zrotation Yrotation Xrotation
					JOINT LeftArm
					{
						OFFSET 0.090977 0.030469 -0.008868
						CHANNELS 3 Zrotation Yrotation Xrotation
						JOINT LeftForeArm
						{
							OFFSET 0.259612 -0.012772 -0.027456
							CHANNELS 3 Zrotation Yrotation Xrotation
							JOINT LeftHand
							{
								OFFSET 0.249234 0.008986 -0.001171
								CHANNELS 3 Zrotation Yrotation Xrotation
								End Site
								{
									OFFSET 0.000000 0.000000 0.000000
								}
							}
						}
					}
				}
				JOINT RightShoulder
				{
					OFFSET -0.081759 0.118833 -0.038615
					CHANNELS 3 Zrotation Yrotation Xrotation
					JOINT RightArm
					{
						OFFSET -0.096012 0.032551 -0.009143
						CHANNELS 3 Zrotation Yrotation Xrotation
						JOINT RightForeArm
						{
							OFFSET -0.253742 -0.013329 -0.021401
							CHANNELS 3 Zrotation Yrotation Xrotation
							JOINT RightHand
							{
								OFFSET -0.255298 0.007772 -0.005559
								CHANNELS 3 Zrotation Yrotation Xrotation
								End Site
								{
									OFFSET 0.000000 0.000000 0.000000
								}
							}
						}
					}
				}
			}
		}
	}
}
MOTION
Frames: 16
Frame Time: 0.050000
0.000000 0.766898 0.000000 -2.485795 -1.834560 13.516769 10.347525 0.432130 -54.480544 -10.869368 6.709082 63.106803 12.771698 27.823510 -11.373488 0.000000 0.000000 0.000000 -5.762039 3.776319 -56.118350 15.842352 -9.238153 65.709513 -7.627776 -18.990104 -10.254696 0.000000 0.000000 0.000000 -5.320384 0.971164 52.934452 8.786686 -0.179542 -35.142574 1.713773 5.230366 26.253258 -5.258426 4.935246 -38.586827 0.000000 0.000000 0.000000 -35.790247 -10.668346 3.289004 -34.941336 -19.464075 -0.282869 14.076590 -43.244140 -3.454330 0.000000 0.000000 0.000000 26.663084 13.078320 8.628920 39.635935 19.480728 -0.355533 -16.712839 37.084389 -3.136739 0.000000 0.000000 0.000000 
-0.000427 0.766930 0.004077 -3.171705 -2.928431 14.884761 11.669387 1.466029 -54.703023 -11.630808 7.573734 62.126164 12.885382 28.423447 -12.778604 0.000000 0.000000 0.000000 -4.682068 4.867335 -58.207404 15.680479 -8.728550 65.672047 -8.717135 -22.354218 -6.101136 0.000000 0.000000 0.000000 -5.302210 1.319092 53.933177 8.419515 0.030348 -36.613131 1.814950 5.010443 26.355599 -6.471902 5.124260 -43.434947 0.000000 0.000000 0.000000 -35.758815 -8.395022 1.862254 -36.246676 -21.712057 0.274701 13.332307 -40.425569 -2.784481 0.000000 0.000000 0.000000 26.451912 12.885780 8.282803 40.205010 18.593023 -0.517646 -16.985765 38.693619 -3.371849 0.000000 0.000000 0.000000 
-0.000853 0.769190 0.007921 -2.041453 -1.275860 15.343344 10.409620 0.262794 -53.796168 -11.748405 6.875943 59.836827 12.459908 28.280416 -16.159430 0.000000 0.000000 0.000000 -5.688310 3.699196 -56.931861 15.308090 -8.631673 63.219841 -9.178195 -23.851744 -8.453838 0.000000 0.000000 0.000000 -4.469799 0.385045 53.656935 6.980655 0.050168 -34.920946 1.521080 3.602710 24.109522 -6.895033 5.282220 -39.355715 0.000000 0.000000 0.000000 -37.055161 -8.923438 2.539436 -36.848248 -21.715656 0.432581 12.452826 -36.916076 -2.204979 0.000000 0.000000 0.000000 28.864528 13.436892 8.493833 38.996609 18.027617 -0.464877 -15.761902 37.300817 -3.019950 0.000000 0.000000 0.000000 
-0.001297 0.776726 0.011290 -2.168784 -1.065175 15.783116 9.241511 -0.352225 -53.172160 -9.721863 5.190995 58.656513 12.369449 27.972999 -15.686136 0.000000 0.000000 0.000000 -5.254961 3.888685 -57.470131 14.395406 -7.904286 62.548474 -9.401637 -23.839413 -2.190062 0.000000 0.000000 0.000000 -4.776654 0.497926 54.257056 7.093231 0.171374 -36.436079 1.300462 3.437455 24.675327 -6.780268 5.187776 -40.528725 0.000000 0.000000 0.000000 -37.391955 -7.616943 1.520192 -37.633498 -21.619485 0.417924 12.174270 -35.888714 -2.023853 0.000000 0.000000 0.000000 28.454380 13.239078 8.293209 38.618570 17.048507 -0.780942 -15.240073 37.278214 -2.891211 0.000000 0.000000 0.000000 
-0.001768 0.782141 0.014062 -1.881661 -0.578857 16.027700 8.944957 -0.640456 -51.879767 -9.766414 4.883384 56.337698 12.128403 27.672331 -17.016557 0.000000 0.000000 0.000000 -5.047830 3.728967 -56.113469 13.725502 -7.307698 60.753278 -9.361272 -23.953574 -4.281111 0.000000 0.000000 0.000000 -5.188693 0.591041 53.923699 7.371953 0.086790 -35.775709 1.438914 3.436681 24.760966 -7.645503 5.517543 -40.778462 0.000000 0.000000 0.000000 -36.748033 -7.920919 1.687039 -39.609353 -21.850650 0.644105 11.685446 -33.646178 -1.738138 0.000000 0.000000 0.000000 27.934687 13.477359 8.478732 39.296088 17.984156 -0.491251 -16.333571 35.942407 -3.064031 0.000000 0.000000 0.000000 
-0.002206 0.787371 0.016105 -1.761138 -0.037876 16.306134 8.813175 -0.848204 -50.903354 -9.759440 4.572578 54.317340 11.893557 27.223560 -17.747416 0.000000 0.000000 0.000000 -5.291207 3.395050 -55.340070 13.919171 -7.427632 59.254674 -9.339234 -23.885927 -4.170813 0.000000 0.000000 0.000000 -5.170098 0.432540 54.623956 7.293973 0.174091 -36.618566 1.324979 3.290413 24.726099 -7.835796 5.556961 -41.386447 0.000000 0.000000 0.000000 -36.691233 -7.527757 1.332567 -40.277737 -21.218777 0.528578 10.711413 -32.766767 -1.420262 0.000000 0.000000 0.000000 27.699907 13.227848 8.307320 39.699885 17.791936 -0.515360 -16.129551 35.639106 -2.960131 0.000000 0.000000 0.000000 
-0.002623 0.793525 0.017797 -1.700365 0.110667 16.247707 8.776983 -0.899523 -50.241524 -9.758167 4.450546 53.275395 11.834335 26.726883 -16.120519 0.000000 0.000000 0.000000 -5.108786 3.361792 -54.176008 13.667757 -7.203873 58.629937 -8.693350 -22.252188 -5.679163 0.000000 0.000000 0.000000 -5.258049 0.442274 54.801476 7.065592 0.176525 -36.364618 1.299314 3.182717 24.807471 -7.704805 5.525812 -40.843912 0.000000 0.000000 0.000000 -36.190511 -7.323003 1.224888 -41.344280 -21.092001 0.543467 11.149975 -32.445242 -1.516529 0.000000 0.000000 0.000000 27.190645 13.152708 8.187145 40.111116 17.834672 -0.478720 -15.947330 35.977194 -2.925758 0.000000 0.000000 0.000000 
-0.003152 0.798850 0.019175 -1.435128 0.768829 16.328971 8.402679 -1.223679 -49.415236 -9.571925 4.037750 51.663374 11.620867 26.114595 -15.930075 0.000000 0.000000 0.000000 -4.902485 3.206637 -53.286174 12.985732 -6.892467 58.473469 -8.190113 -20.841703 -7.286058 0.000000 0.000000 0.000000 -5.013729 0.104594 54.809085 6.934116 0.196730 -36.409974 0.981384 3.004973 25.217753 -7.320056 5.430145 -40.134291 0.000000 0.000000 0.000000 -36.192810 -7.697676 1.497888 -40.948365 -20.673936 0.354725 11.322971 -32.696812 -1.589122 0.000000 0.000000 0.000000 27.370371 13.138147 8.257416 39.746155 17.642050 -0.616365 -15.541069 36.196560 -2.821445 0.000000 0.000000 0.000000 
-0.003861 0.803526 0.019971 -1.291714 1.024211 16.240907 8.370532 -1.297380 -49.024768 -9.673343 3.986720 50.982702 11.530455 25.608100 -14.351044 0.000000 0.000000 0.000000 -4.819260 3.139545 -52.787023 12.707049 -6.810111 58.791248 -7.740578 -19.482202 -7.489716 0.000000 0.000000 0.000000 -5.203897 0.133959 55.114549 7.007171 0.138846 -35.825254 0.872183 2.959495 24.822980 -7.147855 5.369534 -39.880744 0.000000 0.000000 0.000000 -35.597077 -7.613188 1.417522 -40.902000 -20.602574 0.373417 11.654755 -33.153719 -1.725229 0.000000 0.000000 0.000000 26.665495 13.064207 8.136068 39.912644 17.463286 -0.615579 -14.857547 36.725967 -2.660612 0.000000 0.000000 0.000000 
-0.004999 0.808453 0.020170 -1.030747 1.537448 15.982719 8.160345 -1.495817 -48.238174 -9.672516 3.779801 49.877786 11.341951 24.953130 -13.379200 0.000000 0.000000 0.000000 -4.758129 2.970506 -51.890258 12.458361 -6.771313 58.630182 -7.577450 -18.941183 -7.933370 0.000000 0.000000 0.000000 -4.889143 -0.219805 56.145091 6.175546 0.262083 -36.264298 0.946688 2.265045 25.319418 -7.059911 5.262985 -40.288180 0.000000 0.000000 0.000000 -35.336305 -7.732183 1.806299 -40.211859 -21.079560 0.365773 12.243776 -33.294963 -1.877113 0.000000 0.000000 0.000000 26.073401 13.226450 7.986914 40.294066 17.781297 -0.482685 -14.984836 37.086692 -2.747854 0.000000 0.000000 0.000000 
-0.006386 0.812121 0.019709 -1.053375 1.761543 16.102400 8.382017 -1.452784 -47.983377 -9.803719 3.754031 48.983641 11.208722 24.525367 -12.553825 0.000000 0.000000 0.000000 -4.449874 3.038400 -51.728018 12.614919 -6.891062 58.196088 -8.031226 -20.277895 -7.289046 0.000000 0.000000 0.000000 -4.952894 -0.261109 56.602638 6.309224 0.220697 -35.894795 0.832897 2.187953 25.133789 -6.884727 5.184369 -40.322631 0.000000 0.000000 0.000000 -34.908371 -8.139895 2.145082 -39.470643 -21.029197 0.313287 13.110830 -33.323084 -2.147557 0.000000 0.000000 0.000000 25.667742 13.729923 8.259353 40.497197 18.204971 -0.308204 -16.046447 36.765114 -3.043203 0.000000 0.000000 0.000000 
-0.007767 0.816401 0.018879 -0.868141 1.677681 16.570862 8.493912 -1.397783 -48.072976 -10.053327 3.856863 47.974304 11.145630 24.258787 -11.084802 0.000000 0.000000 0.000000 -4.344225 3.110061 -51.898595 12.814694 -6.869195 57.095167 -8.769425 -22.344123 -5.912599 0.000000 0.000000 0.000000 -4.752723 -0.359524 56.906471 6.214404 0.249916 -36.093245 0.608259 1.707589 25.317360 -7.308717 5.262343 -40.719068 0.000000 0.000000 0.000000 -34.837599 -8.576058 2.757796 -38.679224 -21.154434 0.216777 14.328136 -33.018310 -2.450979 0.000000 0.000000 0.000000 25.824949 14.458613 8.576448 39.839865 18.385646 -0.252316 -16.534715 36.594494 -3.226577 0.000000 0.000000 0.000000 
-0.008883 0.819421 0.017611 -0.653229 1.211793 16.974744 8.494210 -1.297465 -48.263013 -10.214763 4.009238 47.342699 11.204281 24.295583 -9.682418 0.000000 0.000000 0.000000 -4.261312 3.290260 -52.357422 13.276506 -7.002692 56.696329 -9.722369 -24.831651 -4.764094 0.000000 0.000000 0.000000 -4.674518 -0.257736 56.956659 6.174838 0.229005 -35.675297 0.509969 1.618162 25.214604 -7.451279 5.272811 -40.830875 0.000000 0.000000 0.000000 -34.862390 -9.409268 3.518533 -37.648786 -21.283134 0.172888 14.768214 -31.917021 -2.495237 0.000000 0.000000 0.000000 25.531696 14.962209 8.766158 39.874220 18.670044 -0.108033 -17.362066 36.987890 -3.544016 0.000000 0.000000 0.000000 
-0.009617 0.822951 0.015856 -0.281679 1.078876 17.279639 8.002132 -1.480774 -48.453150 -9.889681 3.797120 46.785086 11.181553 24.118401 -8.162848 0.000000 0.000000 0.000000 -4.345894 3.281692 -52.472179 13.407933 -6.981830 56.012648 -10.364256 -26.402573 -4.040633 0.000000 0.000000 0.000000 -4.530858 -0.314023 57.311902 6.360776 0.241057 -36.068555 0.184013 1.285098 25.470442 -7.761064 5.363477 -40.466237 0.000000 0.000000 0.000000 -35.537771 -9.996416 4.186122 -36.272969 -21.525503 0.074762 15.186913 -31.098981 -2.529225 0.000000 0.000000 0.000000 26.006246 15.748753 9.214237 39.064384 18.356880 -0.240831 -17.405318 37.051263 -3.619535 0.000000 0.000000 0.000000 
-0.009935 0.825841 0.013074 0.143328 0.981192 17.461835 7.459017 -1.688106 -48.402779 -9.645181 3.608228 45.963306 11.155338 23.990886 -7.307253 0.000000 0.000000 0.000000 -4.382973 3.274458 -52.446681 13.215850 -6.765380 55.478607 -10.737889 -27.363414 -4.049568 0.000000 0.000000 0.000000 -4.206625 -0.490447 57.713632 6.427446 0.235980 -36.070439 0.054555 1.207656 25.567183 -7.966130 5.422119 -40.635770 0.000000 0.000000 0.000000 -36.040059 -10.641235 4.761520 -35.636129 -21.865478 0.103207 14.978368 -30.306482 -2.407144 0.000000 0.000000 0.000000 25.902438 16.135684 9.413044 38.653488 18.331930 -0.260943 -17.646827 37.172540 -3.732300 0.000000 0.000000 0.000000 
-0.009674 0.829795 0.009094 0.773844 0.968079 17.336865 6.888122 -1.923752 -48.124999 -9.668056 3.610502 46.089781 10.188663 21.697991 -7.682427 0.000000 0.000000 0.000000 -4.585414 3.159095 -52.319051 12.989439 -6.542809 54.802873 -11.514038 -28.986938 -2.754470 0.000000 0.000000 0.000000 -3.768320 -0.771457 58.131187 6.475712 0.249399 -36.276110 -0.376275 0.911607 25.527707 -8.097012 5.438747 -40.832123 0.000000 0.000000 0.000000 -36.941202 -11.263661 5.428338 -34.378262 -21.938103 0.005408 15.216074 -29.146793 -2.375625 0.000000 0.000000 0.000000 26.498899 16.913409 9.874150 38.107480 17.609769 -0.456491 -17.567088 37.279177 -3.783601 0.000000 0.000000 0.000000 
